<?xml version="1.0" standalone="no"?>
<!DOCTYPE svg PUBLIC "-//W3C//DTD SVG 20010904//EN"
 "http://www.w3.org/TR/2001/REC-SVG-20010904/DTD/svg10.dtd">
<svg   version="1.0" xmlns="http://www.w3.org/2000/svg"
 width="256.000000pt" height="256.000000pt" viewBox="0 0 256.000000 256.000000"
 preserveAspectRatio="xMidYMid meet">

<g transform="translate(0.000000,256.000000) scale(0.100000,-0.100000)"
 fill="#000000" stroke="none">
<path d="M1145 2553 c-69 -8 -75 -12 -75 -43 0 -37 -27 -41 -36 -5 -4 15 -13
25 -25 25 -16 0 -179 -48 -187 -55 -2 -2 2 -13 8 -25 17 -31 -5 -54 -25 -26
-8 10 -16 23 -18 29 -3 9 -70 -21 -154 -70 -41 -24 -42 -26 -27 -47 13 -20 13
-25 0 -35 -12 -10 -17 -8 -26 8 -6 12 -15 21 -21 21 -13 0 -115 -79 -147 -112
l-22 -25 20 -18 c15 -14 17 -21 8 -32 -9 -11 -15 -10 -33 7 l-22 21 -48 -53
c-77 -85 -81 -95 -56 -115 14 -12 18 -22 12 -32 -7 -11 -13 -11 -32 3 -23 16
-24 15 -47 -21 -13 -21 -36 -64 -53 -96 l-29 -57 25 -12 c34 -15 26 -34 -13
-31 -31 3 -31 2 -62 -92 -16 -52 -30 -100 -30 -105 0 -6 11 -10 24 -10 29 0
38 -10 26 -29 -5 -9 -17 -11 -33 -7 -28 7 -30 -2 -43 -141 l-7 -73 32 0 c24 0
31 -4 31 -20 0 -16 -7 -20 -31 -20 l-32 0 7 -77 c10 -116 12 -120 47 -115 37
5 41 -25 4 -34 -15 -4 -25 -13 -25 -25 0 -16 48 -179 55 -187 2 -2 13 2 25 8
31 17 54 -5 26 -25 -10 -8 -23 -16 -29 -18 -9 -3 21 -70 70 -154 24 -41 26
-42 47 -27 20 13 25 13 35 0 10 -12 8 -17 -8 -26 -12 -6 -21 -15 -21 -21 0
-13 79 -115 112 -147 l25 -22 18 20 c14 15 21 17 32 8 11 -9 10 -15 -7 -33
l-21 -22 53 -48 c29 -26 64 -55 77 -63 21 -15 24 -14 40 6 11 15 20 19 30 13
12 -8 12 -13 -1 -34 -16 -24 -16 -24 45 -59 34 -20 77 -43 95 -52 32 -16 32
-16 44 9 12 27 16 29 35 17 8 -5 9 -13 3 -22 -6 -8 -10 -20 -10 -27 0 -10 172
-73 199 -73 5 0 11 10 13 22 2 13 11 24 22 26 16 3 18 0 13 -26 -6 -28 -4 -30
31 -36 20 -3 70 -8 110 -12 l72 -7 0 32 c0 24 4 31 20 31 16 0 20 -7 20 -31
l0 -32 78 7 c116 11 119 12 114 48 -4 25 -2 29 14 26 11 -2 20 -13 22 -26 4
-29 18 -28 125 5 71 21 87 29 81 42 -12 29 -9 45 9 49 9 2 17 -2 17 -10 0 -7
4 -19 9 -26 9 -14 55 5 159 65 41 24 42 26 28 48 -13 20 -13 25 -1 35 11 9 16
7 25 -9 6 -12 15 -21 19 -21 5 0 46 30 90 66 77 63 81 68 65 85 -9 10 -14 25
-10 35 6 15 9 15 30 -5 l23 -22 48 53 c26 29 55 64 63 77 15 21 14 24 -6 40
-15 11 -19 20 -13 30 8 12 13 12 34 -1 24 -16 24 -16 59 45 20 34 43 77 52 95
16 32 16 32 -9 44 -34 15 -26 34 13 31 31 -3 31 -2 62 92 16 52 30 100 30 105
0 6 -11 10 -25 10 -19 0 -25 5 -25 21 0 18 4 21 29 16 32 -7 34 -2 47 140 l7
71 -29 4 c-18 2 -30 10 -32 21 -3 13 3 17 29 17 l32 0 -7 78 c-10 115 -12 119
-47 114 -37 -5 -41 25 -4 34 14 3 25 12 25 19 0 14 -49 187 -55 193 -2 2 -13
-2 -25 -8 -18 -10 -24 -9 -31 1 -8 13 8 33 34 42 9 3 -21 70 -70 154 -24 41
-26 42 -47 27 -20 -13 -25 -13 -35 0 -10 12 -8 17 8 26 12 6 21 15 21 21 0 13
-79 115 -112 147 -22 20 -26 21 -38 7 -15 -18 -40 -20 -40 -3 0 6 7 19 15 28
14 16 11 21 -37 65 -85 77 -95 81 -115 56 -12 -14 -22 -18 -32 -12 -11 7 -11
13 3 32 16 23 15 24 -21 47 -21 13 -64 36 -96 53 l-57 29 -10 -26 c-13 -34
-36 -25 -33 14 3 31 2 31 -92 62 -52 16 -100 30 -105 30 -6 0 -10 -11 -10 -25
0 -19 -5 -25 -21 -25 -17 0 -20 4 -14 29 6 27 4 29 -32 34 -21 4 -71 9 -110
13 l-73 7 0 -32 c0 -24 -4 -31 -20 -31 -16 0 -20 7 -20 30 0 29 -2 30 -42 29
-24 -1 -56 -4 -73 -6z m298 -539 c93 -20 236 -90 312 -151 122 -99 225 -267
259 -420 60 -274 -42 -567 -259 -741 -89 -72 -160 -110 -265 -144 -63 -19 -96
-23 -210 -23 -114 0 -147 4 -210 23 -267 84 -454 282 -521 552 -28 109 -23
278 11 385 81 258 286 453 542 516 93 22 246 24 341 3z"/>
<path d="M1028 1881 c-123 -53 -262 -170 -287 -243 -16 -45 8 -63 132 -104
149 -48 203 -53 240 -24 42 33 47 58 48 219 0 138 -1 147 -22 164 -28 22 -32
22 -111 -12z"/>
<path d="M1422 1894 c-23 -16 -23 -18 -20 -181 l3 -165 34 -30 c31 -28 39 -30
85 -25 57 6 239 61 274 83 35 23 29 64 -19 124 -49 62 -143 133 -225 171 -85
39 -105 42 -132 23z"/>
<path d="M1237 1512 c-36 -40 -11 -95 43 -95 36 0 60 23 60 58 0 48 -70 73
-103 37z"/>
<path d="M1057 1382 c-34 -38 -9 -102 39 -102 25 0 38 10 53 38 29 55 -50 110
-92 64z"/>
<path d="M1434 1392 c-23 -15 -34 -50 -25 -75 23 -61 111 -41 111 25 0 42 -52
73 -86 50z"/>
<path d="M645 1330 c-15 -17 -17 -32 -12 -102 12 -186 126 -396 195 -359 25
13 172 223 184 264 13 44 -10 100 -50 121 -40 21 -261 96 -282 96 -9 0 -25 -9
-35 -20z"/>
<path d="M1739 1307 c-153 -52 -175 -65 -190 -116 -10 -34 -9 -45 10 -83 28
-57 145 -219 170 -236 32 -22 68 4 113 78 50 84 78 175 85 278 5 70 3 85 -12
102 -10 11 -25 20 -34 20 -9 0 -73 -19 -142 -43z"/>
<path d="M1126 1164 c-43 -43 5 -120 60 -96 13 7 29 23 36 36 24 55 -53 103
-96 60z"/>
<path d="M1344 1155 c-21 -32 -7 -69 30 -87 55 -24 103 53 60 96 -25 25 -71
20 -90 -9z"/>
<path d="M1235 986 c-46 -20 -205 -231 -205 -271 0 -12 8 -29 18 -38 47 -43
259 -60 382 -31 112 26 124 56 59 150 -137 195 -176 224 -254 190z"/>
</g>
</svg>
